<?xml version="1.0" encoding="utf-8"?>
<!-- Generator: Adobe Illustrator 26.3.1, SVG Export Plug-In . SVG Version: 6.00 Build 0)  -->
<svg version="1.1" id="Layer_1" xmlns="http://www.w3.org/2000/svg" xmlns:xlink="http://www.w3.org/1999/xlink" x="0px" y="0px"
	 viewBox="0 0 1020 1020" style="enable-background:new 0 0 1020 1020;" xml:space="preserve">
<style type="text/css">
	.st0{fill:#FFFFFF;}
</style>
<g>
	<path d="M720.2,489.3c1.1-19.5,10.4-35.5,18.1-52c2.3-5,4.3-5.3,9.1-2.8c3.3-3.9,6.1-8.3,9.9-11.5c5.1-4.2,11-7.4,16.7-10.8
		c1.1-0.6,3.7-0.3,4.5,0.6c0.7,0.9,0.3,3.1-0.1,4.5c-1.3,4-3,8-4.5,12c0.4,0.3,0.8,0.6,1.2,1c1.5-0.5,3.2-0.8,4.4-1.7
		c4.1-3.2,8.1-6.6,12.1-10c1.8-1.5,3.7-3.6,5.8-1.5c1.1,1.1,0.8,3.7,0.6,5.6c-0.2,1.9-1.1,3.7-1.7,5.8c35.1,8,59.1,29.2,75.4,61.2
		c1.6-2.8,3.2-5.2,4.5-7.7c1.1-2.1,1.6-4.6,3-6.6c1.2-1.6,3.6-4,4.7-3.6c1.8,0.5,4,3,4.1,4.8c0.3,4.9-0.1,9.9-0.9,14.8
		c-1.3,7.9-5.5,14.5-10.4,20.7c-1.1,1.4-2.3,2.9-3.3,4.1c3,3.9,6.1,7.5,8.7,11.4c1,1.5,1.5,3.8,1.2,5.5c-1.4,8-2.9,15.8-2.3,24
		c0.2,3.4-2.3,7.8-4.9,10.2c-9,8.2-18.7,15.7-28.1,23.4c-0.7,0.6-1.7,1.1-2.6,1.2c-8.2,1.4-16.4,2.7-24.5,4
		c1.3,5.2,3.7,10.4,3.7,15.5c0,11.7-1,23.4-2,35.1c-0.6,7.5-1.7,14.9-2.8,23.4c41.3,0,82,0,123.1,0c0.4,10.5,0.9,19.9,1,29.4
		c0.3,28.2,0.4,56.4,0.9,84.6c0.1,4.2-1.1,5.2-5.2,5.2c-56.7-0.2-113.5-0.1-170.2-0.3c-5.5,0-9.8,1.3-14.3,4.7
		c-41.9,31.2-89,50.2-140.8,56.6c-21.1,2.6-42.4,3.3-63.6,4.3c-27.9,1.4-55.8,2.2-83.7,3.3c-27.3,1.1-54.7,2.9-82,0.2
		c-30.1-3-58.4-11.1-83.2-29.3c-13.1-9.7-23.5-21.8-30.5-36.5c-1.3-2.6-2.8-3.7-5.8-3.7c-57.3,0-114.6-0.1-171.9-0.2
		c-4.1,0-8.2,0-12.3-0.2c-4.7-0.2-5.8-1.3-5.6-6c0.7-21,1.5-41.9,2.1-62.9c0.5-15.2,0.7-30.3,1.1-45.5c0.1-3.1,0-6.2,0-10.1
		c59.9,0.4,119.1,0.9,178.6,1.3c0.5-3.2,1-6,1.5-8.9c-8.8-0.8-17.4-1-25.7-2.4c-7.6-1.3-15.2-3.4-22.5-6
		c-6.9-2.5-12.5-7.1-16.2-13.8c-0.5-1-2-1.7-3.2-2c-1.9-0.5-3.9-0.6-5.9-0.9c-11.9-1.9-20.2-8.1-24.4-19.7
		c-4-11.2-8.4-22.3-12.7-33.4c-5.1-13.3-5.9-26.9-0.1-39.8c8-17.5,17.1-34.5,25.8-51.7c1.6-3.2,3.4-6.2,5.1-9.3
		c4.8-9.1,7.9-18.5,10.2-28.6c3.4-14.7,8.8-28.9,13.4-43.4c0.6-1.9,1.2-3.8,1.3-5.7c0.4-27.3,7.5-52.6,22.5-75.5
		c13.6-20.7,29.3-39.8,47.1-56.9c30.3-29.1,61-57.7,91.8-86.2c6.4-5.9,14.2-10.3,21.5-15.1c2.4-1.6,5.3-2.7,8.1-3.6
		c10.3-3.4,15.8-0.4,19.1,9.9c3.4,10.6,4.4,21.3,2.4,32.3c-0.5,2.6-0.4,5.9,0.8,8.2c4.7,9.4,3.2,18.4-0.4,27.6
		c-0.7,1.7-1.3,3.4-2.3,6.2c2-1.2,3.2-2,4.4-2.8c11.5-7.2,22.6-15.3,34.7-21.5c21.9-11.2,45-18.6,70-18.5c9,0,13.7,3.6,15.4,12.5
		c0.6,3.2,0.4,6.5,0.5,9.7c0.2,5.5-0.3,11.1,0.6,16.5c1.2,7.2,0,13.8-3.4,20.1c-16,29.3-32.4,58.1-55.6,82.6
		c-17.7,18.7-29.6,40.7-33.3,66.6c-0.2,1.3-0.3,2.9,0.2,4.1c6.5,13.9,8,28.8,8.7,43.9c0,0.6,0.1,1.1,0.3,2.3
		c6.6-1.1,13.1-2,19.6-3.1c29.9-5.3,59.9-10,90.2-11.4c36.8-1.8,73.4,0,107.6,15.5c14.2,6.5,27.3,15.5,40.8,23.4
		C716.8,486.9,718.2,487.9,720.2,489.3z M738.1,455.7c-1.4,3.4-2.6,6.5-4,9.7c-3.5,8.4-5.9,17.2-5.7,26.4c0,1.9,1.3,4.2,2.7,5.5
		c3.7,3.3,7.8,6.1,11.7,9.2c2.1,1.7,3.8,4,1.7,6.6c-2.3,2.8-4.7,1.3-7-0.5c-3.1-2.5-6.1-5.1-9.4-7.3c-1.9-1.3-4.6-1.5-6.4-2.9
		c-3.8-3-7-6.8-10.9-9.7c-35.3-26.6-75.4-38.5-119.3-38c-17.6,0.2-35.1,1.5-52.6,2.6c-18.9,1.2-37.2,4.8-53.9,14.5
		c-8.4,4.9-17,9.7-25.5,14.3c-2.6,1.4-3.3,3.4-3.5,6.2c-1.8,25.1-17.5,40.2-37.8,51.8c-1.4,0.8-4.9,0.2-5.8-1
		c-1.9-2.4,0.1-4.3,2.3-5.8c3.7-2.4,7.5-4.6,10.9-7.4c11.5-9.4,20.8-20.2,22.3-35.8c1.7-18.7,2.1-37.4-1.2-55.9
		c-1.2-6.9-3.7-13.5-5.6-20.3c-5.8,3-10.8,5.4-15.5,8.1c-6.1,3.5-12,7.5-18.2,10.9c-1.3,0.7-3.4-0.1-5.2-0.2c0.5-1.7,0.3-4.2,1.4-5
		c9.7-7.1,17.6-15.9,26-24.4c5.2-5.4,9.4-10.9,11.2-18.1c4.4-17.5,13.9-31.7,27.4-43.6c5-4.4,9.5-9.4,14-14.2
		c16.9-18.1,28.8-39.6,40.9-60.9c3.3-5.9,8.2-11.9,8.8-18.2c1.1-12-0.3-24.2-1-36.3c-0.2-3.3-2.8-5.1-6.4-4.8
		c-9.1,1-18.5,1.1-27.4,3.2c-21,5-40.4,13.5-58.5,25.5c-32.9,21.8-65.6,43.7-93.9,71.5c-14.7,14.4-26.5,30.3-31.3,50.6
		c-1.5,6.2-2.8,12.4-4.1,18.7c-0.5,2.3-1.2,4.7-3.8,3.9c-1.5-0.4-2.5-2.8-3.4-4.5c-0.4-0.8-0.1-2,0.1-2.9
		c3.8-24,11.9-45.9,29.4-63.7c23.1-23.6,48.6-44.2,76.1-62.5c1.5-1,3-2,5-3.5c-5.1-1.5-4.7-4.6-3.6-8c0.7-2.2,1.2-4.4,2-6.5
		c2.1-5.6,1.7-10.8-0.4-16.5c-1.6-4.3-2.2-9.5-1.6-14c1.3-9.3,1-18.3-1.8-27.3c-2.4-7.5-4.2-9-11.3-5.3c-8.3,4.4-16.6,9.3-23.9,15.3
		c-11.4,9.5-22.1,19.9-32.9,30.2c-23.6,22.5-47.3,44.9-70.3,68c-6.9,6.9-12.7,15.4-17.4,24c-8.2,14.9-15.2,30.4-22.5,45.7
		c-2.9,6-5.3,12.2-8,18.3c3.7-2.5,6.5-5.5,9.8-7.9c3.7-2.8,7.6-5.4,11.8-7.5c1.2-0.6,4.2,0,4.8,0.9c0.8,1.3,0.3,3.6-0.2,5.3
		c-0.2,0.9-1.5,1.6-2.4,2.3c-29.1,22.4-41.4,54-48.5,88.5c-0.8,3.9-1,8-2.6,11.6c-3.7,8.1-8.1,15.9-12.1,23.8
		c-8.7,17.2-17.7,34.2-25.9,51.6c-5.5,11.8-4.5,24,0.5,35.9c3.9,9.6,8.1,19.1,11.1,29c3.7,12.3,11.9,17.7,23.9,18.6
		c1.7,0.1,3.6-0.3,5.1,0.3c1.8,0.7,4.2,1.9,4.6,3.4c1.8,6.8,6.8,10.8,12.8,12.7c9.1,2.9,18.5,5.8,28,6.5c14.1,1.1,28.3,0.3,42.5,0.2
		c17.9-0.2,33.1-6.3,46.2-19.1c10.1-10,21.9-18.3,33-27.4c2.1-1.7,4.6-3,6.7-0.2c1.9,2.6-0.2,4.4-2.1,6
		c-12.5,10.6-25.2,21.1-37.5,32.1c-10.9,9.8-23.5,15-38,15.8c-7.5,0.4-10.7,3.3-12.9,11.3c177,1.4,353.9,2.8,531.1,4.3
		c0.9-7.8,1.8-15.2,2.6-22.7c1.7-14.8,0.8-29.2-6.1-42.7c-1.4-2.7-3.4-5.2-5.7-7.2c-3.3-2.9-7.2-5-10.4-8c-1.6-1.5-3.3-4.3-3-6.2
		c0.5-3.2,3.9-3.8,6.5-3c5.8,1.7,11.3,4.2,17,6.2c2.5,0.9,5.1,2,7.6,2c11.8-0.3,22.6-3.8,32.2-10.7c5.3-3.8,10.4-7.9,15.7-11.6
		c5-3.5,8.4-7.6,6.2-14.2c-0.3-1-0.2-2.3,0-3.4c1-6.2,2.7-12.3-0.1-18.4c-1-2.1-1.9-4.5-3.5-5.8c-4.1-3.4-5.1-7.3-2.1-11.7
		c1.4-2.1,3.1-4.1,4.5-6.2c1.9-2.9,3.6-6,5.2-8.7c-2.3,2-4.5,4.3-7.1,6c-1.1,0.7-3.3,0.7-4.6,0.1c-0.8-0.3-1.5-2.8-1-3.6
		c1.7-2.7,0.6-4.8-0.7-7.1c-3-5.3-5.7-10.8-9.2-15.7c-15.6-21.7-35.8-36.4-62.9-40.5c-1.7-0.3-3.2-2-5.2-3.3c-3.7,1.6-7.8,6-13,3.1
		c-4.8-2.7-5.9-7.4-5-12.9c-2.4,1.4-4.2,2.8-5.8,4.3c-7.2,6.8-11.9,15.1-15.1,24.3C745.4,457.1,743.6,457.8,738.1,455.7z M735,790.6
		c-0.2-0.5-0.4-1-0.6-1.5c-151.7,0-303.5,0-456.4,0c3.5,5.4,6.4,10.4,9.8,15c14.7,19.2,34.8,30.4,57.3,37.8
		c25.8,8.6,52.5,10.3,79.4,9.5c36.4-1.2,72.8-2.8,109.2-4.5c26.5-1.2,53-1.7,79.3-4.6c34.3-3.8,67.4-12.7,96-33.5
		C717.5,802.5,726.3,796.6,735,790.6z M592.1,675.6c0,35.1,0,70.3,0,105.4c36,0,71.2,0,106.9,0c0-35.2,0-70,0-105.4
		C663,675.6,627.5,675.6,592.1,675.6z M829.2,677.6c-0.5,34.5-0.9,69-1.4,103.4c36.6,0,72.5,0,108.2,0c0-34.5,0-68.6,0-103.4
		C900.3,677.6,865.2,677.6,829.2,677.6z M709.6,781c35.9,0,71.4,0,107.4,0c0-34.8,0-69.3,0-104.4c-35.8,0-71.5,0-107.4,0
		C709.6,711.3,709.6,746,709.6,781z M204.2,672.8c0,35.8,0,71.6,0,107.5c35.7,0,71.1,0,106.8,0c0.6-35.8,1.2-71.5,1.8-107.5
		C276.5,672.8,240.4,672.8,204.2,672.8z M325.8,673c-0.7,36-1.4,71.6-2.1,107.5c35,0,69.4,0,104.2,0c0-4.6,0-8.9,0-13.3
		c0-29.1,0-58.1,0-87.2c0-6-0.4-6.3-6.1-6.3c-30.3-0.2-60.7-0.4-91-0.6C329.2,673,327.7,673,325.8,673z M441.4,780.8
		c35.5,0,70.9,0,107,0c0.7-35.5,1.3-70.6,2-106.1c-2,0-3.2,0-4.5,0c-32.9-0.3-65.7-0.5-98.6-0.9c-3.8,0-4.8,1.1-4.9,4.7
		c-0.2,25.5-0.7,51-1,76.5C441.3,763.4,441.4,771.8,441.4,780.8z M86.8,673c-1.3,36.1-2.5,71.6-3.8,107.2c37.1,0,73.4,0,109.7,0
		c0.1-0.7,0.3-1.1,0.3-1.5c0-33.9,0-67.7,0.1-101.6c0-3.6-1.3-4.9-5-4.8c-22.8,0.3-45.6,0.5-68.4,0.6C108.8,673.1,97.9,673,86.8,673
		z"/>
	<path d="M107.2,541.8c8,1.3,16.8,2.7,25.5,4.2c1.2,0.2,2.5,0.7,3.6,1.1c2.3,0.9,4.2,2.7,2.9,5.1c-0.8,1.3-3.5,2.3-5.1,2.1
		c-6.9-0.9-13.6-2.8-20.5-3.4c-6.3-0.5-12.7,0-19,0.2c-2.4,0.1-4.8,0.2-5.4-2.7c-0.7-3.1,1.5-4.3,4.1-4.8
		C97.6,543.1,102,542.5,107.2,541.8z"/>
	<path d="M134.6,564.1c1,1,3.3,2.2,3.7,4c0.6,2.8-1.9,3.4-4.4,4c-8.4,1.8-16.9,3.4-25.2,5.7c-3.4,1-6.4,3.5-9.5,5.5
		c-2.1,1.3-4.5,2.5-5.9,0c-0.7-1.4,0-4.6,1.2-5.8c6.8-6.7,15.6-9.5,24.8-11.2C123.9,565.5,128.5,565,134.6,564.1z"/>
	<path d="M110.9,610.4c6.3-11.5,12-22.8,22.9-30c1.2-0.8,3.8,0.4,5.7,0.6c-0.3,1.6,0,4.1-0.9,4.8c-8.3,6.4-13.2,15.3-18.6,23.9
		c-0.7,1.2-1.3,2.7-2.4,3.4c-1.1,0.7-3,1.2-4.2,0.7C112.2,613.4,111.7,611.6,110.9,610.4z"/>
	<path class="st0" d="M738.1,455.7c5.5,2.1,7.4,1.4,9.3-4c3.3-9.2,8-17.5,15.1-24.3c1.6-1.5,3.4-2.9,5.8-4.3
		c-0.9,5.5,0.2,10.3,5,12.9c5.3,2.9,9.3-1.5,13-3.1c2,1.3,3.5,3.1,5.2,3.3c27.1,4.1,47.3,18.8,62.9,40.5c3.5,4.9,6.2,10.5,9.2,15.7
		c1.3,2.2,2.4,4.3,0.7,7.1c-0.5,0.7,0.3,3.2,1,3.6c1.3,0.6,3.4,0.6,4.6-0.1c2.6-1.7,4.8-4,7.1-6c-1.6,2.7-3.3,5.8-5.2,8.7
		c-1.4,2.1-3.1,4.1-4.5,6.2c-3,4.4-2,8.3,2.1,11.7c1.7,1.4,2.6,3.8,3.5,5.8c2.8,6.1,1,12.3,0.1,18.4c-0.2,1.1-0.3,2.4,0,3.4
		c2.2,6.7-1.2,10.7-6.2,14.2c-5.3,3.8-10.4,7.8-15.7,11.6c-9.6,6.9-20.4,10.4-32.2,10.7c-2.5,0.1-5.1-1.1-7.6-2
		c-5.7-2-11.3-4.4-17-6.2c-2.6-0.8-6.1-0.2-6.5,3c-0.3,1.9,1.4,4.7,3,6.2c3.2,3,7.2,5.1,10.4,8c2.3,2,4.3,4.5,5.7,7.2
		c6.8,13.5,7.8,27.9,6.1,42.7c-0.9,7.4-1.7,14.9-2.6,22.7c-177.2-1.4-354.1-2.8-531.1-4.3c2.2-8.1,5.4-10.9,12.9-11.3
		c14.5-0.8,27.1-6.1,38-15.8c12.2-11,24.9-21.4,37.5-32.1c1.9-1.6,4-3.4,2.1-6c-2-2.9-4.6-1.5-6.7,0.2c-11.1,9-22.9,17.4-33,27.4
		c-13.1,12.9-28.3,18.9-46.2,19.1c-14.2,0.2-28.4,0.9-42.5-0.2c-9.5-0.7-18.9-3.6-28-6.5c-5.9-1.9-10.9-5.9-12.8-12.7
		c-0.4-1.5-2.8-2.7-4.6-3.4c-1.5-0.6-3.4-0.1-5.1-0.3c-12.1-0.9-20.3-6.3-23.9-18.6c-3-9.9-7.2-19.4-11.1-29
		c-4.9-12-6-24.2-0.5-35.9c8.2-17.4,17.2-34.4,25.9-51.6c4-8,8.4-15.7,12.1-23.8c1.6-3.5,1.8-7.7,2.6-11.6
		c7.1-34.5,19.4-66.1,48.5-88.5c0.9-0.7,2.1-1.4,2.4-2.3c0.5-1.7,1-4,0.2-5.3c-0.6-1-3.6-1.6-4.8-0.9c-4.1,2.2-8.1,4.7-11.8,7.5
		c-3.3,2.5-6.1,5.5-9.8,7.9c2.6-6.1,5.1-12.3,8-18.3c7.3-15.3,14.3-30.8,22.5-45.7c4.7-8.6,10.5-17.1,17.4-24
		c23-23.1,46.7-45.5,70.3-68c10.8-10.3,21.4-20.7,32.9-30.2c7.2-6,15.5-10.9,23.9-15.3c7.1-3.7,8.9-2.3,11.3,5.3
		c2.8,9,3.2,18,1.8,27.3c-0.7,4.5,0,9.7,1.6,14c2.1,5.7,2.5,10.9,0.4,16.5c-0.8,2.1-1.3,4.3-2,6.5c-1.1,3.4-1.5,6.5,3.6,8
		c-2.1,1.4-3.6,2.5-5,3.5c-27.5,18.2-53,38.8-76.1,62.5c-17.5,17.9-25.6,39.7-29.4,63.7c-0.2,1-0.5,2.2-0.1,2.9
		c0.9,1.7,1.9,4,3.4,4.5c2.6,0.8,3.4-1.6,3.8-3.9c1.3-6.2,2.6-12.5,4.1-18.7c4.8-20.3,16.6-36.2,31.3-50.6
		c28.3-27.8,61.1-49.7,93.9-71.5c18.1-12,37.5-20.6,58.5-25.5c8.9-2.1,18.2-2.2,27.4-3.2c3.6-0.4,6.2,1.4,6.4,4.8
		c0.7,12.1,2.1,24.3,1,36.3c-0.6,6.3-5.4,12.3-8.8,18.2c-12.1,21.3-23.9,42.9-40.9,60.9c-4.6,4.9-9.1,9.8-14,14.2
		c-13.5,11.8-22.9,26.1-27.4,43.6c-1.8,7.2-6,12.8-11.2,18.1c-8.3,8.5-16.3,17.3-26,24.4c-1.1,0.8-1,3.3-1.4,5
		c1.8,0.1,3.9,0.9,5.2,0.2c6.2-3.4,12.1-7.4,18.2-10.9c4.7-2.7,9.6-5.1,15.5-8.1c1.9,6.8,4.3,13.5,5.6,20.3
		c3.4,18.5,3,37.2,1.2,55.9c-1.4,15.6-10.8,26.4-22.3,35.8c-3.4,2.8-7.2,5-10.9,7.4c-2.2,1.4-4.2,3.4-2.3,5.8c1,1.2,4.4,1.8,5.8,1
		c20.3-11.6,36-26.7,37.8-51.8c0.2-2.8,0.9-4.8,3.5-6.2c8.6-4.6,17.1-9.4,25.5-14.3c16.7-9.7,35-13.3,53.9-14.5
		c17.5-1.1,35.1-2.4,52.6-2.6c43.9-0.5,84,11.3,119.3,38c3.9,2.9,7.1,6.7,10.9,9.7c1.8,1.4,4.4,1.6,6.4,2.9c3.3,2.2,6.3,4.8,9.4,7.3
		c2.3,1.8,4.8,3.3,7,0.5c2-2.6,0.4-4.8-1.7-6.6c-3.9-3.1-8-5.9-11.7-9.2c-1.4-1.3-2.7-3.6-2.7-5.5c-0.2-9.2,2.2-17.9,5.7-26.4
		C735.4,462.2,736.7,459.1,738.1,455.7z M354.8,354.9c0.4,0.5,1.2,2.1,2,2.2c2,0.1,4.4,1,5.6-2.2c3.5-9,7.1-17.9,11-26.7
		c6.5-14.4,16.7-25.5,30.6-33.2c29.7-16.6,59.7-32.5,87.6-52.1c2.3-1.6,5.1-2.5,7.7-3.5c2.5-1,4-0.4,5,2.6c0.8,2.5,2.2,5,4.1,6.7
		c1,1,3.8,1.1,5.1,0.4c0.8-0.4,0.9-3.3,0.5-4.8c-0.7-2.7-2.2-5.2-3.2-7.8c-1.6-4.1-4.4-6.3-9-5.3c-5.2,1.1-10.4,2.8-15,5.3
		c-7.6,4.3-14.6,9.8-22.1,14.3c-20.3,11.8-40.5,23.9-61.3,34.9c-27.4,14.5-39.7,39.2-48.2,67C355.2,353.2,355.1,353.6,354.8,354.9z
		 M303.4,455.1c1.2,5,1.8,9.8,3.6,14.1c2.9,6.6,9.7,7.6,15.1,3c8.7-7.5,11.4-28.6,4.9-38c-3.1-4.6-7.8-5-12.4-4.8
		c-3.9,0.2-5.9,3.4-6.9,6.7C306.1,442.4,304.8,448.7,303.4,455.1z M296.7,542.4c-1.3,0.2-1.6,0.2-1.8,0.3
		c-17.8,3.9-35.7,7.7-52.2,15.8c-2.3,1.1-4.5,2.5-6.2,4.3c-0.9,1-1.4,3.7-0.7,4.7c0.7,1,3.5,1.5,4.7,0.8
		c12.6-7.2,26.4-10.6,40.3-14.2c5.3-1.4,10.8-2.5,16-4.3c1.4-0.5,2.8-2.9,3-4.6C299.8,544.3,297.4,543.1,296.7,542.4z M191.4,566.1
		c-4.4-6-8.1-11.4-12.2-16.4c-0.9-1.1-3.4-1-5.1-1.4c-0.4,1.8-1.2,3.6-1.1,5.3c0.1,1.2,1.4,2.4,2.2,3.6c2.6,3.9,5.4,7.6,7.8,11.6
		c2.2,3.7,8.6,6.4,12.1,3.9c8.2-5.9,16-12.2,23.7-18.6c0.9-0.8,1.1-3.8,0.4-4.8c-0.8-0.9-3.4-1.1-4.8-0.6c-1.8,0.6-3.2,2.3-4.8,3.5
		C203.6,556.9,197.5,561.5,191.4,566.1z M242.1,575.6c-1.8,1.5-4.4,2.7-4.3,3.7c0.1,1.6,1.6,3.7,3.1,4.5c2.3,1.2,5.2,1.4,7.7,2.2
		c12.1,3.8,24.2,7.6,36.4,11.4c2.4,0.8,5,1.4,6.3-1.4c1.4-3-0.7-4.7-3.2-5.8c-2.1-0.9-4.1-1.9-6.3-2.6
		C268.7,583.6,255.6,579.7,242.1,575.6z M274,620.2c1.1-0.9,3.1-1.7,3.1-2.6c0-1.7-0.6-4.1-1.8-5c-10.2-7.1-20.6-14-30.9-20.9
		c-2.1-1.4-4.7-2-6.4,0.5c-1.7,2.6-0.1,4.5,2.1,6c9.7,6.5,19.5,13.1,29.3,19.6C270.6,618.7,272,619.3,274,620.2z M395.6,350.7
		c-0.7-1-1.4-2.6-2-2.6c-1.7,0-3.7,0.2-4.9,1.1c-7.8,6.1-15.4,12.4-23.1,18.6c-1.8,1.5-3.8,3.5-1.6,5.5c0.9,0.9,4.2,0.6,5.5-0.4
		c8.1-6.2,16-12.6,23.8-19.1C394.1,353.2,394.6,352,395.6,350.7z M391.6,222.5c0.1,0,0.2,0,0.4,0c0-3.7,0.3-7.4-0.1-11
		c-0.2-1.6-1.5-3.9-2.8-4.3c-2.6-0.8-3.7,1.5-3.8,3.8c-0.5,8.3-1.1,16.7-1.3,25c0,1.5,2.1,3,3.3,4.5c1.2-1.4,3.1-2.6,3.3-4.1
		C391.2,231.9,391.3,227.2,391.6,222.5z M191.9,595.3c0.1,0,0.1,0,0.2,0c0,1.3,0,2.5,0,3.8c0,2.4,0.3,4.8,3.3,5
		c3,0.2,3.7-2.1,3.9-4.5c0.4-5.2,1-10.4,1-15.7c0-1.5-1.9-2.9-2.9-4.4c-1.4,1.2-3.6,2.1-3.9,3.5
		C192.5,587.1,192.4,591.2,191.9,595.3z M387.2,374.7c0.8-0.3,1.4-0.4,1.8-0.8c5.1-5.3,10.2-10.6,15.1-16c0.6-0.7,0.4-3.3-0.1-3.6
		c-1.1-0.6-3.1-0.7-4,0c-2.5,1.8-4.7,4.1-6.8,6.3c-2.7,2.9-5.4,5.8-7.8,8.9c-0.7,0.9-0.6,2.6-0.3,3.9
		C385.1,373.9,386.4,374.3,387.2,374.7z M414.8,358.8c-1.6,0.6-2.2,0.6-2.6,1c-2.6,2.9-5.3,5.8-7.7,8.9c-0.4,0.5,0.1,2.3,0.7,2.9
		c0.6,0.5,2.4,0.6,2.9,0.1c2.7-2.7,5.4-5.4,7.6-8.5C416.3,362.5,415.2,360.5,414.8,358.8z"/>
	<path class="st0" d="M735,790.6c-8.7,6.1-17.5,12-26.1,18.2c-28.6,20.8-61.7,29.7-96,33.5c-26.3,2.9-52.9,3.4-79.3,4.6
		c-36.4,1.7-72.8,3.3-109.2,4.5c-26.9,0.9-53.6-0.9-79.4-9.5c-22.5-7.5-42.6-18.6-57.3-37.8c-3.5-4.5-6.3-9.5-9.8-15
		c153,0,304.7,0,456.4,0C734.5,789.5,734.8,790.1,735,790.6z"/>
	<path class="st0" d="M592.1,675.6c35.4,0,71,0,106.9,0c0,35.4,0,70.3,0,105.4c-35.6,0-70.8,0-106.9,0
		C592.1,745.9,592.1,710.7,592.1,675.6z M642.8,720.9c3.8-3.5,7.3-6.7,10.8-10c7.5-7.3,15-14.7,22.4-22.1c0.9-0.9,2.3-2.7,2-3.2
		c-0.7-1.1-2.2-2.3-3.5-2.4c-4.8-0.5-9-0.2-13,3.9c-11.5,11.9-23.7,23.2-35.6,34.8c-1.2,1.2-2.4,2.5-3.3,3.5c0-12.6-0.1-25,0.1-37.5
		c0.1-4.6-2.5-5.1-5.9-4.9c-3,0.1-6.3-0.6-6.3,4.4c-0.3,25.1-0.9,50.1-1.3,75.2c-0.1,7.9,0,7.7,7.9,8.3c3.2,0.2,3.8-1,3.7-3.9
		c-0.2-8.1,0-16.1,0.2-24.2c0-1.4,0.7-3.1,1.7-4.1c3.2-3.3,6.7-6.3,10.2-9.5c10.4,11.7,20.5,23.1,30.7,34.5c7.2,8,7.3,8,17.9,7.4
		c1.5-0.1,3-0.8,5.9-1.7C671.9,752.6,657.4,736.8,642.8,720.9z"/>
	<path class="st0" d="M829.2,677.6c36,0,71.1,0,106.8,0c0,34.8,0,69,0,103.4c-35.7,0-71.6,0-108.2,0
		C828.2,746.6,828.7,712.1,829.2,677.6z M844.8,724.3c0,14,1.8,21.5,6.1,29.6c7.9,14.7,21.3,21.4,33.5,20.4
		c19.3-1.6,30.9-16.6,35.7-30.7c0.4-1.2,0-3.3-0.8-4.2c-3.3-3.2-10.8-1.1-13.2,2.8c-3,4.9-6.1,9.9-10.2,13.8
		c-8.2,7.9-20.6,7.6-29.2,0c-16.5-14.6-15.1-46.7,2.7-59.8c5.3-3.9,11-6.2,17.8-4.7c9.8,2.1,15.4,8.7,19.4,17.3
		c0.8,1.7,2.9,3.8,4.6,4c3,0.3,6.1-0.7,9.1-1.5c0.4-0.1,1-2,0.6-2.7c-1.8-4.3-3.3-8.8-5.8-12.6c-12-18.6-33.9-22.5-51.3-9
		C850.3,697.3,845.2,711.8,844.8,724.3z"/>
	<path class="st0" d="M709.6,781c0-35.1,0-69.8,0-104.4c35.9,0,71.7,0,107.4,0c0,35.1,0,69.6,0,104.4C781,781,745.5,781,709.6,781z
		 M802,710.5c-1.6-3.8-2.9-7.9-4.9-11.5c-12.9-23.4-41.5-27.4-59.7-6.8c-15.4,17.4-18.3,37.8-9.7,59.3c9.8,24.3,36.6,31.6,56.9,16
		c7.5-5.8,12.3-13.5,15.6-22.3c0.8-2.1,2.5-4.5-1.2-5.9c-4.2-1.5-8.5-0.7-10,1.9c-1.9,3.5-3.6,7.1-6,10.1
		c-13.2,16.9-35.1,13.9-43.4-5.8c-6.5-15.5-2.4-35.3,9.7-47c12.7-12.3,30.9-9.4,39,6.3c1.3,2.4,1.8,6.1,3.8,7.1
		c2.1,1.1,5.4-0.3,8.2-0.6C800.5,711.3,800.8,711.1,802,710.5z"/>
	<path class="st0" d="M204.2,672.8c36.1,0,72.2,0,108.6,0c-0.6,36.1-1.2,71.7-1.8,107.5c-35.7,0-71,0-106.8,0
		C204.2,744.5,204.2,708.7,204.2,672.8z M239.7,734.6c1.9,0,2.9,0,3.9,0c9,0.2,18.1,1.4,27,0.5c19.5-1.9,29.3-22.8,18.9-39
		c-5.2-8.2-12.4-11.9-22-11.7c-11.4,0.3-22.9,0.6-34.3,0.5c-2.9,0-3.7,0.8-3.7,3.5c-0.1,25.5-0.3,51-0.5,76.5c0,4.3,2.7,6.5,7.6,6
		c3.7-0.4,3.1-3.4,3.1-5.9C239.8,755.1,239.7,745.1,239.7,734.6z"/>
	<path class="st0" d="M325.8,673c1.9,0,3.4,0,4.9,0c30.3,0.2,60.7,0.4,91,0.6c5.7,0,6.1,0.4,6.1,6.3c0,29.1,0,58.1,0,87.2
		c0,4.4,0,8.7,0,13.3c-34.8,0-69.1,0-104.2,0C324.4,744.6,325.1,709,325.8,673z M356,694.8c1.2-0.1,1.7-0.2,2.3-0.2
		c14.2,0,28.4,0,42.5,0.1c2.9,0,5-0.3,3.6-4c-0.3-0.7-0.2-1.7,0-2.5c1-4.5-1.3-5.3-5.1-5.3c-17.6-0.1-35.2-0.2-52.7-0.5
		c-3.2,0-4.2,1.3-4.1,4.3c0.1,27.1,0.3,54.1,0.3,81.2c0,2.5,1,3.2,3.3,3.2c4.4,0,8.8,0.2,13.2,0.1c15.2-0.2,30.3-0.5,45.5-0.8
		c0.9,0,1.8-0.4,2.2-0.5c0-3.1-0.4-5.8,0.1-8.3c0.6-2.7-0.7-3-2.6-3c-10.3-0.2-20.7-0.4-31-0.6c-5.8-0.1-11.6,0-17.4,0
		c0-9,0-18.1,0-27.3c1.1-0.1,1.8-0.2,2.5-0.2c13.3-0.3,26.6-0.6,39.9-1c1.3,0,3.5-0.6,3.8-1.4c0.8-2.3,0.7-4.8,1.1-8
		c-16.1,0-31.6,0-47.2,0C356,711.4,356,703.3,356,694.8z"/>
	<path class="st0" d="M441.4,780.8c0-9-0.1-17.4,0-25.7c0.3-25.5,0.7-51,1-76.5c0-3.7,1.1-4.8,4.9-4.7c32.9,0.4,65.7,0.6,98.6,0.9
		c1.3,0,2.5,0,4.5,0c-0.7,35.4-1.3,70.6-2,106.1C512.3,780.8,476.8,780.8,441.4,780.8z M518,749.4c-1.4-1.9-2.3-2.9-3.1-4
		c-13-18.7-26.1-37.3-38.9-56.1c-2.7-3.9-5.2-6.4-10.4-6.1c-5.4,0.3-6.1,0.1-6.2,5.8c-0.3,24.5-0.6,49-0.7,73.6
		c0,7.6,0.2,7.6,7.6,8.2c0.6,0.1,1.2,0,1.7,0.2c4.1,1.4,5.2-0.2,5.1-4.2c-0.4-18.6-0.7-37.1-0.9-55.7c0-1.2,0.2-2.3,0.2-3.3
		c13.8,20.1,27.5,40,41.2,59.9c2.5,3.6,12.6,6.1,16.1,3.8c1-0.7,1.7-2.3,1.8-3.6c0.2-1.9-0.2-3.9-0.3-5.9c-0.3-5.7-0.8-11.3-0.8-17
		c0-19.5,0.3-39.1,0.3-58.6c0-1.1-0.6-3.2-1.2-3.3c-2.9-0.3-6-0.7-8.7,0.1c-1.1,0.3-1.8,3.5-1.9,5.4c-0.3,17.3-0.4,34.6-0.6,51.9
		C518.4,743.2,518.2,745.9,518,749.4z"/>
	<path class="st0" d="M86.8,673c11.1,0,22,0.1,32.9,0c22.8-0.2,45.6-0.3,68.4-0.6c3.7-0.1,5,1.2,5,4.8C193,711,193,744.9,193,778.8
		c0,0.4-0.1,0.8-0.3,1.5c-36.3,0-72.7,0-109.7,0C84.2,744.6,85.5,709.1,86.8,673z M98.1,728.3c-1.9,16.6,6.2,28.5,18.9,37.4
		c4.6,3.2,10.8,4.7,16.6,5.6c14,2.2,25.8-3.2,34.9-13.4c14.3-15.9,12.3-43.6,2.3-58.8c-11.9-18-26.3-19.9-44.1-15.8
		c-15.3,3.5-25.1,14.7-27.3,31.1C98.7,719,98.5,723.7,98.1,728.3z"/>
	<path d="M354.8,354.9c0.3-1.3,0.4-1.7,0.5-2.1c8.5-27.8,20.9-52.5,48.2-67c20.8-11,41-23.1,61.3-34.9c7.6-4.4,14.5-10,22.1-14.3
		c4.6-2.6,9.9-4.2,15-5.3c4.6-1,7.3,1.2,9,5.3c1,2.6,2.5,5.1,3.2,7.8c0.4,1.5,0.3,4.4-0.5,4.8c-1.4,0.7-4.1,0.6-5.1-0.4
		c-1.9-1.8-3.3-4.3-4.1-6.7c-0.9-2.9-2.4-3.6-5-2.6c-2.6,1-5.4,1.9-7.7,3.5c-27.9,19.5-58,35.5-87.6,52.1
		c-13.8,7.7-24.1,18.8-30.6,33.2c-3.9,8.8-7.6,17.7-11,26.7c-1.2,3.2-3.6,2.3-5.6,2.2C356,357,355.3,355.4,354.8,354.9z"/>
	<path d="M303.4,455.1c1.5-6.4,2.7-12.7,4.4-19c0.9-3.3,3-6.6,6.9-6.7c4.7-0.2,9.3,0.2,12.4,4.8c6.4,9.4,3.8,30.6-4.9,38
		c-5.5,4.7-12.2,3.6-15.1-3C305.1,464.9,304.6,460.1,303.4,455.1z"/>
	<path d="M296.7,542.4c0.8,0.7,3.1,1.9,3,2.9c-0.2,1.7-1.6,4.1-3,4.6c-5.2,1.8-10.6,2.9-16,4.3c-13.8,3.6-27.7,7.1-40.3,14.2
		c-1.1,0.6-4,0.1-4.7-0.8c-0.7-1-0.3-3.7,0.7-4.7c1.7-1.8,3.9-3.2,6.2-4.3c16.5-8.1,34.4-12,52.2-15.8
		C295.1,542.6,295.4,542.6,296.7,542.4z"/>
	<path d="M191.4,566.1c6.1-4.6,12.1-9.2,18.2-13.8c1.6-1.2,3-2.9,4.8-3.5c1.4-0.5,4-0.3,4.8,0.6c0.8,0.9,0.6,4-0.4,4.8
		c-7.7,6.4-15.6,12.7-23.7,18.6c-3.5,2.5-9.9-0.2-12.1-3.9c-2.4-4-5.2-7.8-7.8-11.6c-0.8-1.2-2.1-2.3-2.2-3.6
		c-0.1-1.7,0.7-3.5,1.1-5.3c1.8,0.4,4.2,0.3,5.1,1.4C183.3,554.8,187,560.1,191.4,566.1z"/>
	<path d="M242.1,575.6c13.5,4.1,26.6,8,39.7,12c2.2,0.7,4.2,1.7,6.3,2.6c2.6,1.1,4.6,2.8,3.2,5.8c-1.3,2.8-3.9,2.2-6.3,1.4
		c-12.1-3.8-24.2-7.7-36.4-11.4c-2.6-0.8-5.4-1-7.7-2.2c-1.5-0.8-3.1-2.9-3.1-4.5C237.8,578.3,240.3,577.2,242.1,575.6z"/>
	<path d="M274,620.2c-1.9-1-3.4-1.5-4.7-2.4c-9.8-6.5-19.5-13.1-29.3-19.6c-2.2-1.5-3.8-3.4-2.1-6c1.7-2.6,4.3-1.9,6.4-0.5
		c10.4,6.9,20.8,13.8,30.9,20.9c1.2,0.9,1.8,3.3,1.8,5C277.1,618.5,275.1,619.4,274,620.2z"/>
	<path d="M395.6,350.7c-0.9,1.3-1.5,2.5-2.4,3.2c-7.9,6.4-15.7,12.9-23.8,19.1c-1.3,1-4.5,1.2-5.5,0.4c-2.2-2.1-0.2-4,1.6-5.5
		c7.7-6.2,15.3-12.5,23.1-18.6c1.2-1,3.3-1.1,4.9-1.1C394.2,348.1,394.8,349.7,395.6,350.7z"/>
	<path d="M391.6,222.5c-0.3,4.7-0.4,9.4-1.1,14c-0.2,1.5-2.2,2.7-3.3,4.1c-1.1-1.5-3.3-3-3.3-4.5c0.1-8.3,0.7-16.7,1.3-25
		c0.1-2.3,1.2-4.6,3.8-3.8c1.3,0.4,2.6,2.7,2.8,4.3c0.4,3.6,0.1,7.3,0.1,11C391.8,222.5,391.7,222.5,391.6,222.5z"/>
	<path d="M191.9,595.3c0.5-4.1,0.6-8.2,1.6-12.2c0.3-1.4,2.6-2.3,3.9-3.5c1,1.5,2.9,2.9,2.9,4.4c0,5.2-0.6,10.4-1,15.7
		c-0.2,2.4-0.9,4.7-3.9,4.5c-3-0.2-3.3-2.6-3.3-5c0-1.3,0-2.5,0-3.8C192,595.3,191.9,595.3,191.9,595.3z"/>
	<path d="M387.2,374.7c-0.7-0.4-2.1-0.8-2.2-1.4c-0.3-1.2-0.4-3,0.3-3.9c2.4-3.1,5.1-6,7.8-8.9c2.1-2.2,4.3-4.5,6.8-6.3
		c0.9-0.7,3-0.6,4,0c0.6,0.3,0.8,2.9,0.1,3.6c-4.9,5.5-10,10.7-15.1,16C388.6,374.3,388,374.4,387.2,374.7z"/>
	<path d="M414.8,358.8c0.4,1.7,1.5,3.6,0.9,4.4c-2.2,3.1-4.9,5.8-7.6,8.5c-0.5,0.5-2.3,0.4-2.9-0.1c-0.6-0.5-1.1-2.4-0.7-2.9
		c2.4-3.1,5.1-6,7.7-8.9C412.6,359.4,413.2,359.4,414.8,358.8z"/>
	<path d="M642.8,720.9c14.6,16,29.1,31.7,44.5,48.5c-2.9,0.9-4.4,1.6-5.9,1.7c-10.6,0.6-10.7,0.6-17.9-7.4
		c-10.2-11.4-20.3-22.8-30.7-34.5c-3.5,3.2-7,6.2-10.2,9.5c-1,1-1.6,2.7-1.7,4.1c-0.2,8.1-0.3,16.1-0.2,24.2
		c0.1,2.9-0.5,4.1-3.7,3.9c-7.9-0.6-8-0.4-7.9-8.3c0.4-25.1,1-50.1,1.3-75.2c0.1-5,3.4-4.3,6.3-4.4c3.4-0.1,6,0.3,5.9,4.9
		c-0.2,12.4-0.1,24.9-0.1,37.5c0.9-1,2.1-2.3,3.3-3.5c11.9-11.6,24-22.8,35.6-34.8c4-4.1,8.2-4.4,13-3.9c1.3,0.1,2.8,1.3,3.5,2.4
		c0.3,0.5-1.1,2.3-2,3.2c-7.4,7.4-14.9,14.8-22.4,22.1C650.1,714.2,646.5,717.4,642.8,720.9z"/>
	<path d="M844.8,724.3c0.5-12.5,5.6-27,18.9-37.3c17.5-13.5,39.3-9.6,51.3,9c2.5,3.9,4,8.3,5.8,12.6c0.3,0.7-0.2,2.6-0.6,2.7
		c-3,0.8-6.1,1.8-9.1,1.5c-1.7-0.1-3.8-2.2-4.6-4c-4-8.6-9.6-15.2-19.4-17.3c-6.8-1.5-12.5,0.9-17.8,4.7
		c-17.8,13-19.2,45.1-2.7,59.8c8.6,7.6,20.9,7.9,29.2,0c4.1-3.9,7.1-9,10.2-13.8c2.4-3.9,9.9-6,13.2-2.8c0.9,0.8,1.2,3,0.8,4.2
		c-4.8,14.2-16.4,29.1-35.7,30.7c-12.2,1-25.6-5.7-33.5-20.4C846.5,745.8,844.8,738.3,844.8,724.3z"/>
	<path d="M802,710.5c-1.3,0.7-1.5,0.9-1.8,0.9c-2.8,0.3-6.1,1.7-8.2,0.6c-2-1-2.5-4.7-3.8-7.1c-8.1-15.7-26.3-18.6-39-6.3
		c-12.1,11.7-16.2,31.6-9.7,47c8.3,19.7,30.2,22.7,43.4,5.8c2.4-3.1,4.2-6.7,6-10.1c1.4-2.6,5.7-3.4,10-1.9c3.7,1.4,2,3.7,1.2,5.9
		c-3.3,8.8-8.1,16.5-15.6,22.3c-20.2,15.6-47.1,8.3-56.9-16c-8.7-21.5-5.7-42,9.7-59.3c18.2-20.6,46.8-16.6,59.7,6.8
		C799.1,702.6,800.4,706.7,802,710.5z"/>
	<path d="M239.7,734.6c0,10.4,0,20.5,0,30.5c0,2.5,0.6,5.5-3.1,5.9c-4.9,0.5-7.6-1.8-7.6-6c0.1-25.5,0.4-51,0.5-76.5
		c0-2.7,0.7-3.5,3.7-3.5c11.4,0,22.9-0.3,34.3-0.5c9.6-0.2,16.8,3.4,22,11.7c10.3,16.3,0.6,37.2-18.9,39c-8.9,0.9-18-0.3-27-0.5
		C242.7,734.6,241.7,734.6,239.7,734.6z M240.6,723.8c10.8,2.9,21.1,1.3,31.3-1.1c7-1.7,10.3-6.1,10.4-13.9c0.2-8.8-2-11.8-9.4-14.3
		c-10.6-3.7-21.3,0-32-0.8c-0.1,0.9-0.3,1.4-0.3,1.9C240.6,704.9,240.6,714.2,240.6,723.8z"/>
	<path d="M356,694.8c0,8.5,0,16.7,0,25.1c15.6,0,31.1,0,47.2,0c-0.4,3.2-0.3,5.8-1.1,8c-0.3,0.8-2.5,1.4-3.8,1.4
		c-13.3,0.4-26.6,0.7-39.9,1c-0.7,0-1.4,0.1-2.5,0.2c0,9.2,0,18.3,0,27.3c5.8,0,11.6-0.1,17.4,0c10.3,0.1,20.7,0.4,31,0.6
		c1.9,0,3.2,0.3,2.6,3c-0.6,2.5-0.1,5.2-0.1,8.3c-0.4,0.1-1.3,0.5-2.2,0.5c-15.2,0.3-30.3,0.6-45.5,0.8c-4.4,0.1-8.8-0.1-13.2-0.1
		c-2.3,0-3.3-0.7-3.3-3.2c0-27.1-0.1-54.1-0.3-81.2c0-3,0.9-4.3,4.1-4.3c17.6,0.3,35.2,0.4,52.7,0.5c3.8,0,6.1,0.9,5.1,5.3
		c-0.2,0.8-0.2,1.8,0,2.5c1.4,3.7-0.7,4-3.6,4c-14.2-0.1-28.4,0-42.5-0.1C357.8,694.5,357.2,694.6,356,694.8z"/>
	<path d="M518,749.4c0.2-3.6,0.3-6.2,0.4-8.8c0.2-17.3,0.3-34.6,0.6-51.9c0-1.9,0.8-5.1,1.9-5.4c2.7-0.8,5.8-0.4,8.7-0.1
		c0.5,0.1,1.2,2.1,1.2,3.3c-0.1,19.5-0.3,39.1-0.3,58.6c0,5.7,0.5,11.3,0.8,17c0.1,2,0.5,4,0.3,5.9c-0.1,1.3-0.8,2.9-1.8,3.6
		c-3.5,2.3-13.6-0.2-16.1-3.8c-13.7-19.9-27.4-39.8-41.2-59.9c-0.1,1-0.3,2.2-0.2,3.3c0.3,18.6,0.5,37.1,0.9,55.7
		c0.1,4-1,5.6-5.1,4.2c-0.5-0.2-1.1-0.2-1.7-0.2c-7.3-0.6-7.6-0.7-7.6-8.2c0.1-24.5,0.4-49,0.7-73.6c0.1-5.7,0.7-5.5,6.2-5.8
		c5.3-0.3,7.8,2.1,10.4,6.1c12.8,18.8,25.9,37.4,38.9,56.1C515.7,746.5,516.6,747.6,518,749.4z"/>
	<path d="M98.1,728.3c0.4-4.6,0.5-9.3,1.2-13.9c2.2-16.4,12-27.6,27.3-31.1c17.8-4.1,32.3-2.2,44.1,15.8c10,15.2,12,42.9-2.3,58.8
		c-9.1,10.1-20.9,15.5-34.9,13.4c-5.7-0.9-12-2.3-16.6-5.6C104.4,756.8,96.3,744.9,98.1,728.3z M169.7,725c-0.2,0-0.3-0.1-0.5-0.1
		c-0.2-2.1-0.1-4.3-0.6-6.3c-3.4-14.9-12.3-23.2-27.6-25.6c-11.5-1.9-28.5,5-31.1,18.2c-0.6,3.2-1.6,6.3-1.7,9.5
		c-0.3,6.3-1.9,13.3,0.2,18.8c4.2,11.2,10.8,21.3,24.9,22.1c17.3,1,26.8-2.8,33.2-20.6C168.3,735.9,168.7,730.4,169.7,725z"/>
	<path class="st0" d="M240.6,723.8c0-9.6,0-18.9,0-28.2c0-0.5,0.1-1.1,0.3-1.9c10.8,0.8,21.4-2.9,32,0.8c7.4,2.6,9.6,5.5,9.4,14.3
		c-0.1,7.8-3.4,12.2-10.4,13.9C261.7,725.2,251.4,726.7,240.6,723.8z"/>
	<path class="st0" d="M169.7,725c-1,5.4-1.4,10.9-3.2,16c-6.4,17.8-15.9,21.6-33.2,20.6c-14.1-0.8-20.6-11-24.9-22.1
		c-2.1-5.5-0.5-12.5-0.2-18.8c0.2-3.2,1.1-6.3,1.7-9.5c2.6-13.2,19.6-20.1,31.1-18.2c15.4,2.5,24.3,10.7,27.6,25.6
		c0.5,2,0.4,4.2,0.6,6.3C169.4,724.9,169.6,725,169.7,725z"/>
</g>
</svg>
